<svg width="94" height="95" viewBox="0 0 94 95" fill="none" xmlns="http://www.w3.org/2000/svg">
<path d="M41.163 0.5L51.2319 6.82598L43.4157 33.3055L33.3496 26.9796L41.163 0.5Z" fill="#B0915A"/>
<path d="M29.2575 40.8447L39.3236 47.1707L29.4889 80.5135L19.4199 74.1875L29.2575 40.8447Z" fill="#B0915A"/>
<path d="M57.5051 14.5299C56.7347 14.0516 55.8444 13.8013 54.9373 13.8077H40.4961L50.565 20.1424H65.0062C65.9178 20.1302 66.8138 20.3787 67.5885 20.8588L57.5051 14.5299Z" fill="#997D4C"/>
<path d="M46.1049 40.8447L56.171 47.1707H39.3239L29.2578 40.8447H46.1049Z" fill="#997D4C"/>
<path d="M53.8032 26.9795L63.8721 33.3055L56.1715 47.1706L46.1055 40.8446L53.8032 26.9795Z" fill="#AB8E56"/>
<path d="M85.8058 24.5561C85.7798 24.0217 85.7393 23.4873 85.6728 22.9616V22.9125C85.5861 22.25 85.4685 21.5982 85.32 20.9569C85.2795 20.7836 85.2217 20.6189 85.1783 20.4456C85.0569 19.9806 84.9267 19.5184 84.7735 19.0678C84.7532 19.01 84.7417 18.9494 84.7214 18.8916C84.6665 18.7356 84.5913 18.6027 84.5335 18.4381C84.3744 18.0163 84.2038 17.5975 84.0159 17.1931C83.9118 16.9649 83.799 16.7425 83.6862 16.5201C83.4896 16.1417 83.2843 15.769 83.0645 15.4051C82.9893 15.2809 82.9315 15.1451 82.8534 15.0238C82.7753 14.9025 82.6712 14.758 82.5816 14.6252L82.3502 14.2843C82.0611 13.8626 81.743 13.4466 81.4104 13.0509L81.396 13.0336C80.9881 12.5515 80.5547 12.0915 80.0976 11.6557L80.0455 11.6008C79.8489 11.4131 79.632 11.2484 79.4267 11.0693C79.2214 10.8902 78.9843 10.6736 78.7501 10.4916L78.6893 10.4396C78.2575 10.1084 77.8103 9.79642 77.3476 9.50371L67.2555 3.17773C67.7413 3.48392 68.2098 3.81611 68.658 4.16563C68.8951 4.3505 69.1149 4.5527 69.3404 4.74334C69.566 4.93399 69.7944 5.11886 70.0055 5.32106C70.4626 5.7569 70.896 6.21684 71.3039 6.69891C71.6422 7.10042 71.9574 7.51926 72.2582 7.94966C72.3391 8.06231 72.4143 8.17786 72.4924 8.2934C72.6601 8.54471 72.8163 8.80757 72.9724 9.07043C73.1922 9.43439 73.3994 9.80701 73.5941 10.1883C73.7069 10.4078 73.8197 10.6303 73.9238 10.8556C74.1146 11.2629 74.2824 11.6817 74.4443 12.1034C74.5224 12.3143 74.6091 12.5194 74.6814 12.7331C74.8376 13.1838 74.9706 13.6459 75.0863 14.1139C75.1296 14.2843 75.1875 14.449 75.228 14.6223C75.3794 15.2676 75.4972 15.9203 75.5807 16.5778C75.653 17.1209 75.6964 17.6697 75.7224 18.2214C75.7224 18.3225 75.7224 18.4236 75.7369 18.5276C75.7542 19.0736 75.7514 19.6253 75.7369 20.177C75.7369 20.2781 75.7369 20.3792 75.7195 20.4832C75.6877 21.0147 75.6357 21.552 75.5605 22.0892C75.5605 22.1499 75.5605 22.2134 75.5374 22.277C75.4506 22.8547 75.3349 23.4324 75.199 24.0332C75.1759 24.1315 75.1528 24.2268 75.1267 24.3221C74.9937 24.8652 74.8376 25.4053 74.6554 25.9455C74.5542 26.2343 74.4327 26.5434 74.32 26.8438C74.2072 27.1442 74.0655 27.5255 73.918 27.8664C73.8023 28.1292 73.6664 28.3921 73.5392 28.655C73.3281 29.094 73.1228 29.5215 72.877 29.9693L65.5928 42.9159L64.0312 45.4347C64.0457 45.4347 64.0804 45.4954 64.1209 45.5502L64.1729 45.6167L64.306 45.7958C64.332 45.8333 64.3638 45.8795 64.3956 45.92L64.5691 46.1684L64.6877 46.3417C64.7542 46.4399 64.8236 46.5497 64.8959 46.6623L65.0289 46.8674C65.1735 47.0985 65.3181 47.3527 65.4916 47.6329C65.5147 47.6762 65.5407 47.7253 65.5667 47.7687C65.7084 48.0171 65.8559 48.2886 66.0005 48.5717C66.0439 48.6555 66.0873 48.7392 66.1306 48.8288C66.3012 49.1696 66.4747 49.5307 66.6454 49.9149C66.6627 49.9582 66.6801 50.0073 66.7003 50.0506C66.8507 50.3973 66.9895 50.7641 67.137 51.1454C67.1832 51.2754 67.2324 51.4054 67.2786 51.5383C67.3423 51.7145 67.4001 51.8964 67.4608 52.0784C67.5215 52.2604 67.5678 52.4164 67.617 52.5897C67.6661 52.763 67.724 52.971 67.776 53.1674C67.8281 53.3638 67.8686 53.5227 67.9119 53.7076C67.9553 53.8924 68.0016 54.1091 68.0421 54.3142C68.0825 54.5193 68.1172 54.6868 68.1519 54.8919C68.1866 55.097 68.2184 55.3165 68.2503 55.5303C68.2821 55.744 68.2994 55.8971 68.3197 56.0849C68.3746 56.5788 68.418 57.0814 68.4324 57.5985L78.5014 63.9245C78.4869 63.4074 78.4435 62.9048 78.3886 62.4109C78.3886 62.3589 78.3886 62.304 78.3886 62.252C78.3712 62.1162 78.3481 61.9891 78.3279 61.8534C78.299 61.6425 78.2671 61.4287 78.2324 61.2208C78.1977 61.0128 78.1601 60.8395 78.1226 60.643C78.085 60.4466 78.0387 60.2386 77.9924 60.0393C77.9462 59.84 77.9028 59.6754 77.8565 59.4992C77.8103 59.323 77.7524 59.115 77.6975 58.9215C77.6425 58.7279 77.5934 58.5748 77.5384 58.4073C77.4835 58.2397 77.4199 58.0462 77.3591 57.87C77.336 57.8007 77.3129 57.7256 77.2897 57.6591C77.2666 57.5927 77.2406 57.5378 77.2146 57.4743C77.0758 57.093 76.9254 56.7261 76.7779 56.3795C76.7606 56.3362 76.7432 56.2871 76.723 56.2466C76.5552 55.8596 76.3817 55.4985 76.2111 55.1576L76.0781 54.9006C75.9335 54.6117 75.7889 54.346 75.6473 54.0975L75.5721 53.9647C75.4072 53.6758 75.254 53.4274 75.1065 53.1934L75.0689 53.1328L74.9793 52.9941L74.7682 52.6706L74.6467 52.4944C74.586 52.4048 74.5282 52.3268 74.4761 52.2517L74.3836 52.1246L74.2534 51.9455L74.2014 51.8791L74.1118 51.7636L75.6733 49.2447L82.9344 36.3184C83.0298 36.1479 83.1223 35.9775 83.2235 35.81C83.3652 35.5413 83.478 35.2727 83.6081 35.0041C83.7383 34.7354 83.8684 34.4783 83.9841 34.2155C84.0159 34.149 84.0535 34.0826 84.0824 34.0133C84.198 33.7417 84.2848 33.4673 84.3889 33.1929C84.493 32.9185 84.6231 32.595 84.7243 32.2975C84.7417 32.2368 84.7706 32.179 84.7879 32.1184C84.9441 31.6389 85.0771 31.1536 85.1957 30.6741C85.2188 30.5788 85.2448 30.4834 85.2651 30.3852C85.2853 30.287 85.3316 30.131 85.3576 30.0039C85.4559 29.5446 85.5398 29.0854 85.6063 28.629C85.6063 28.5654 85.6208 28.5048 85.6294 28.4412C85.6786 28.0859 85.7249 27.7335 85.7538 27.3811C85.7711 27.1991 85.7769 27.0171 85.7885 26.8352L85.8058 26.529C85.8319 25.9773 85.8347 25.4255 85.8058 24.8796C85.8058 24.7641 85.8058 24.6572 85.8058 24.5561Z" fill="#B29257"/>
<path d="M68.4204 57.5869L78.4893 63.9158H49.1529L39.084 57.5869H68.4204Z" fill="#997D4C"/>
<path d="M93.6131 61.6853C93.6131 61.2636 93.5957 60.8419 93.5697 60.423C93.5697 60.293 93.5697 60.1659 93.5495 60.0388C93.5177 59.5478 93.4743 59.0596 93.4165 58.5743C93.4165 58.5397 93.4165 58.505 93.402 58.4704C93.3673 58.1815 93.3181 57.8926 93.2747 57.6038C93.2314 57.3149 93.188 57.003 93.1331 56.7054C93.0781 56.4079 93.0174 56.1277 92.9567 55.8591C92.8959 55.5904 92.8381 55.2669 92.7658 54.9723C92.6935 54.6777 92.6183 54.4177 92.5432 54.1404C92.468 53.8631 92.3899 53.5627 92.3031 53.2738C92.2164 52.985 92.1239 52.7279 92.0342 52.4563C91.9446 52.1848 91.881 51.9624 91.7942 51.7226C91.7797 51.6851 91.7624 51.6504 91.7508 51.6129C91.6438 51.324 91.5282 51.0352 91.4183 50.7636C91.3084 50.4921 91.2159 50.2379 91.1031 49.9808C90.9903 49.7237 90.8544 49.4291 90.7272 49.1547C90.5999 48.8803 90.4987 48.6463 90.3744 48.395C90.25 48.1437 90.0852 47.8635 89.9551 47.5978C89.825 47.332 89.7006 47.1038 89.5647 46.8641C89.4288 46.6243 89.2611 46.347 89.1049 46.0928C88.9488 45.8386 88.8591 45.6682 88.729 45.4631C88.7162 45.4408 88.7017 45.4196 88.6856 45.3996C88.3444 44.8623 87.9887 44.3423 87.6186 43.8339C87.5289 43.7068 87.4306 43.5884 87.3294 43.4642C87.0402 43.0858 86.7511 42.7132 86.4619 42.3521C86.4127 42.2914 86.3694 42.225 86.3173 42.1672C86.1901 42.017 86.0571 41.8784 85.9269 41.7282C85.7592 41.5346 85.5915 41.344 85.418 41.1505C85.2445 40.9569 85.0218 40.7345 84.8223 40.5323C84.6228 40.3301 84.4695 40.1712 84.2902 40.0008C84.2382 39.9488 84.189 39.8939 84.1369 39.8448C83.8478 39.5704 83.5586 39.3018 83.2492 39.0418L73.1803 32.7158C73.5359 33.022 73.8801 33.3455 74.2213 33.6719C74.4006 33.8453 74.577 34.0272 74.7505 34.2034C74.924 34.3796 75.1553 34.6136 75.3519 34.8245C75.5486 35.0353 75.6903 35.2029 75.858 35.4022C76.0257 35.6015 76.2195 35.8153 76.3958 36.029C76.6927 36.391 76.9819 36.7608 77.2634 37.1382C77.3588 37.2653 77.4571 37.3838 77.5525 37.5109C77.9188 38.0192 78.2735 38.5401 78.6167 39.0736C78.7642 39.3047 78.9058 39.5444 79.0446 39.7813C79.1834 40.0181 79.3512 40.281 79.4958 40.5381C79.6403 40.7952 79.7618 41.032 79.8919 41.2804C80.022 41.5289 80.1811 41.8033 80.3054 42.0719C80.4298 42.3405 80.5426 42.5803 80.6611 42.8345C80.7797 43.0887 80.9156 43.3776 81.037 43.6549C81.1585 43.9322 81.2481 44.1806 81.3522 44.4463C81.4563 44.7121 81.5778 45.0038 81.6819 45.2869C81.786 45.57 81.8727 45.8646 81.9711 46.1361C82.0694 46.4077 82.159 46.6763 82.24 46.9507C82.321 47.2251 82.4019 47.5284 82.48 47.8173C82.5581 48.1061 82.6362 48.3719 82.7027 48.6521C82.7692 48.9323 82.8299 49.2298 82.8935 49.5187C82.9571 49.8075 83.0179 50.0964 83.0699 50.3852C83.122 50.6741 83.1653 50.9629 83.2087 51.2749C83.2521 51.5869 83.3041 51.8526 83.3388 52.1415C83.4025 52.6585 83.4516 53.1814 83.4892 53.7042C83.4892 53.8342 83.4892 53.9642 83.5095 54.0913C83.5326 54.513 83.547 54.9319 83.5528 55.3536C83.5528 55.5067 83.5528 55.6598 83.5528 55.8129C83.5528 56.353 83.5528 56.8932 83.5066 57.4362C83.4661 58.1179 83.3967 58.7939 83.3186 59.4582C83.2608 59.9666 83.1885 60.475 83.1046 60.9776C83.0786 61.1452 83.041 61.3127 83.0121 61.4802C82.9513 61.8124 82.8935 62.1475 82.8212 62.4768C82.7894 62.6328 82.7489 62.7859 82.7113 62.9448C82.6333 63.2943 82.5494 63.6467 82.4598 63.9962C82.4077 64.1897 82.3499 64.3804 82.2949 64.5739C82.2082 64.8801 82.1214 65.1863 82.0231 65.4896C81.9508 65.7178 81.8727 65.946 81.7947 66.1742C81.7166 66.4024 81.6356 66.6421 81.5518 66.8732C81.4679 67.1043 81.3783 67.3296 81.2886 67.5578C81.199 67.786 81.1093 68.0142 81.0139 68.2424C80.9619 68.3666 80.9069 68.4879 80.852 68.6121C80.5194 69.3834 80.1609 70.1431 79.7705 70.8826C79.7271 70.9634 79.6808 71.0414 79.6375 71.1194C79.2345 71.8704 78.8056 72.6041 78.3506 73.3205L78.2408 73.4794C77.7549 74.2304 77.2412 74.9583 76.6995 75.6632C76.6677 75.7065 76.633 75.7469 76.6012 75.7874C76.0228 76.5326 75.4136 77.2509 74.7736 77.9422C74.6637 78.0607 74.5509 78.1762 74.441 78.2918C74.1981 78.5488 73.9523 78.8001 73.7008 79.0486L73.2699 79.4645C73.027 79.6927 72.7812 79.9209 72.5325 80.1433L72.1161 80.5131C71.6505 80.9146 71.1792 81.3074 70.6963 81.6685C70.6789 81.6829 70.6616 81.6916 70.6471 81.706C70.1758 82.0671 69.6929 82.4109 69.2013 82.7459L68.808 83.0088C68.2557 83.3756 67.6976 83.7309 67.125 84.0602L67.0527 84.1007C66.4975 84.4184 65.9336 84.7159 65.3582 85.0019L64.9591 85.1983C64.3808 85.4872 63.7764 85.7443 63.172 85.9898L62.8829 86.0996C62.3363 86.3133 61.7811 86.5097 61.223 86.6946L60.8471 86.8188C60.2254 87.0124 59.595 87.1857 58.9617 87.3388L58.5598 87.4312C57.9814 87.5641 57.3925 87.6796 56.7929 87.7778C56.7004 87.7778 56.6108 87.8125 56.5211 87.824C55.8676 87.928 55.2054 88.0031 54.5432 88.058C54.3909 88.0715 54.2376 88.0831 54.0834 88.0927C53.4038 88.1418 52.7214 88.1736 52.0332 88.1736H0.5L10.5689 94.4995H62.0934C62.7817 94.4995 63.4641 94.4678 64.1437 94.4187C64.2998 94.4187 64.4502 94.3984 64.6034 94.384C65.2685 94.3291 65.9307 94.254 66.5843 94.1529L66.8532 94.1038C67.4489 94.0056 68.0359 93.8901 68.6229 93.7572L69.022 93.6647C69.6582 93.5107 70.2876 93.3374 70.9103 93.1448L71.2833 93.0206C71.8443 92.8396 72.3985 92.6412 72.946 92.4256L73.2352 92.3158C73.8396 92.0703 74.4353 91.8045 75.0223 91.5243L75.4213 91.3279C75.9997 91.039 76.5607 90.7502 77.1159 90.4267L77.1882 90.3862C77.7665 90.0569 78.3188 89.7016 78.8711 89.3348C78.9377 89.2915 79.0071 89.2539 79.0707 89.2106C79.1343 89.1672 79.1979 89.1181 79.2615 89.0748C79.7531 88.7368 80.236 88.3931 80.7074 88.0291L80.7536 87.9974C81.2395 87.6218 81.7108 87.229 82.1764 86.8275C82.2313 86.7784 82.2891 86.7351 82.3441 86.6888L82.5899 86.4606C82.8415 86.2353 83.0873 86.0071 83.3302 85.776C83.4747 85.6403 83.6193 85.5045 83.7581 85.363C84.0126 85.1146 84.2584 84.8604 84.5013 84.6033C84.591 84.5109 84.6864 84.4184 84.7905 84.3144C84.8107 84.2942 84.8281 84.2682 84.8483 84.248C85.4864 83.5547 86.0956 82.8355 86.6759 82.0902L86.7453 82.0122L86.7713 81.9718C87.3149 81.267 87.8297 80.5275 88.3155 79.788L88.3936 79.6783C88.4043 79.6616 88.4139 79.6442 88.4225 79.6263C88.8822 78.9128 89.3102 78.182 89.7122 77.4281C89.7411 77.3732 89.7758 77.3241 89.8018 77.2721C89.8278 77.2201 89.8278 77.2143 89.8423 77.1883C90.2279 76.445 90.5893 75.6872 90.9267 74.915C90.9556 74.8543 90.9874 74.7995 91.0134 74.7359C91.0395 74.6724 91.0626 74.6117 91.0886 74.551C91.1841 74.32 91.2737 74.0889 91.3778 73.8578C91.4819 73.6267 91.5542 73.4101 91.6381 73.1819C91.7219 72.9537 91.8029 72.711 91.8838 72.4742C91.9388 72.3066 92.0024 72.142 92.0574 71.9744L92.1094 71.7982C92.2048 71.4949 92.2945 71.1859 92.3812 70.8797C92.4362 70.689 92.494 70.4984 92.5432 70.302C92.6357 69.9524 92.7196 69.5971 92.8005 69.2418C92.8294 69.1061 92.867 68.9732 92.8988 68.8374V68.7826C92.9711 68.4504 93.029 68.1153 93.0897 67.7802C93.1186 67.6127 93.1562 67.4509 93.1822 67.2834C93.2661 66.7808 93.3355 66.2753 93.3962 65.764C93.4396 65.374 93.483 64.987 93.5177 64.5941C93.5437 64.3053 93.5668 64.0164 93.5842 63.7276C93.616 63.1845 93.6275 62.6443 93.6304 62.1071C93.6131 61.9915 93.6131 61.8384 93.6131 61.6853Z" fill="url(#paint0_linear_214_9877)"/>
<path d="M57.6864 0.5C72.3647 0.5 80.4268 16.5316 72.865 29.9779L65.5807 42.9245L64.0192 45.4433C64.2303 45.7062 68.218 50.7236 68.4204 57.5753H39.084L59.0715 21.5548C61.0465 18.0105 58.7997 13.7932 54.9363 13.7932H40.4951L43.9189 0.5H57.6864Z" fill="#F4D78B"/>
<path d="M73.1832 32.7307C79.675 38.3432 84.0878 47.7513 83.5066 57.4425C83.4661 58.1242 83.3967 58.8001 83.3186 59.4645C81.4766 75.4672 67.793 88.1885 52.0361 88.1885H0.5L26.5023 0.5H41.1632L33.3556 26.9796H53.8087L46.111 40.8447H29.2581L19.4262 74.1875H52.8255C61.7754 74.1875 69.5194 66.6772 70.0746 57.4338C70.3348 53.1183 68.6056 48.147 66.1794 45.1805L73.1832 32.7307Z" fill="#F4D78B"/>
<defs>
<linearGradient id="paint0_linear_214_9877" x1="0.5" y1="3123.78" x2="9312.68" y2="3123.78" gradientUnits="userSpaceOnUse">
<stop offset="0.18" stop-color="#997D4C"/>
<stop offset="0.91" stop-color="#AA8C52"/>
<stop offset="0.98" stop-color="#AC8E53"/>
</linearGradient>
</defs>
</svg>
