<svg width="32" height="32" viewBox="0 0 32 32" fill="none" xmlns="http://www.w3.org/2000/svg">
<path d="M11.4058 22.8754H21.655M15.2719 4.63693L6.58272 11.3952C6.00189 11.8469 5.71147 12.0728 5.50225 12.3557C5.31691 12.6063 5.17885 12.8886 5.09484 13.1887C5 13.5275 5 13.8954 5 14.6313V23.9003C5 25.3353 5 26.0528 5.27927 26.601C5.52493 27.0831 5.91691 27.4751 6.39904 27.7207C6.94715 28 7.66466 28 9.09969 28H23.9611C25.3961 28 26.1136 28 26.6617 27.7207C27.1438 27.4751 27.5358 27.0831 27.7815 26.601C28.0607 26.0528 28.0607 25.3353 28.0607 23.9003V14.6313C28.0607 13.8954 28.0607 13.5275 27.9659 13.1887C27.8819 12.8886 27.7438 12.6063 27.5585 12.3557C27.3493 12.0728 27.0589 11.8469 26.478 11.3952L17.7889 4.63693C17.3388 4.28685 17.1137 4.11181 16.8652 4.04453C16.6459 3.98516 16.4148 3.98516 16.1955 4.04453C15.947 4.11181 15.722 4.28685 15.2719 4.63693Z" stroke="white" stroke-width="2" stroke-linecap="round" stroke-linejoin="round"/>
</svg>
