<svg width="32" height="32" viewBox="0 0 32 32" fill="none" xmlns="http://www.w3.org/2000/svg">
<path d="M7.57974 13.7411C7.50515 13.2604 7.46646 12.7679 7.46646 12.2665C7.46646 6.96457 11.7928 2.6665 17.1296 2.6665C22.4664 2.6665 26.7928 6.96457 26.7928 12.2665C26.7928 13.4642 26.572 14.6106 26.1687 15.6679C26.0849 15.8875 26.043 15.9973 26.024 16.083C26.0052 16.1679 25.9979 16.2277 25.9959 16.3146C25.9938 16.4024 26.0057 16.4991 26.0295 16.6925L26.5126 20.6167C26.5649 21.0415 26.591 21.2539 26.5204 21.4084C26.4585 21.5437 26.3485 21.6511 26.2118 21.7099C26.0558 21.777 25.8441 21.746 25.4206 21.6839L21.5982 21.1236C21.3987 21.0943 21.2989 21.0797 21.208 21.0802C21.1181 21.0807 21.0559 21.0874 20.9679 21.1059C20.8789 21.1246 20.7653 21.1671 20.5381 21.2523C19.4781 21.6493 18.3294 21.8665 17.1296 21.8665C16.6278 21.8665 16.1349 21.8285 15.6537 21.7552M9.4244 26.6665C12.9823 26.6665 15.8665 23.7116 15.8665 20.0665C15.8665 16.4214 12.9823 13.4665 9.4244 13.4665C5.86652 13.4665 2.98229 16.4214 2.98229 20.0665C2.98229 20.7992 3.09883 21.504 3.31396 22.1626C3.4049 22.441 3.45037 22.5801 3.46529 22.6752C3.48087 22.7745 3.4836 22.8303 3.4778 22.9306C3.47224 23.0267 3.4482 23.1353 3.40012 23.3525L2.6665 26.6665L6.26027 26.1757C6.45642 26.1489 6.5545 26.1355 6.64015 26.1361C6.73033 26.1367 6.77819 26.1416 6.86663 26.1592C6.95063 26.176 7.0755 26.22 7.32523 26.3082C7.98321 26.5404 8.68943 26.6665 9.4244 26.6665Z" stroke="white" stroke-width="2" stroke-linecap="round" stroke-linejoin="round"/>
</svg>
