<svg width="72" height="64" viewBox="0 0 72 64" fill="none" xmlns="http://www.w3.org/2000/svg">
<path d="M70.002 51.699L57.7493 35.0518C56.4181 33.2429 54.4471 32.1593 52.3481 31.9204C51.8704 31.8649 51.4438 31.5877 51.2047 31.1695C50.9616 30.7514 50.936 30.2438 51.128 29.8C51.9686 27.8632 52.0196 25.6149 51.1153 23.5585L42.8258 4.62468C41.5972 1.81318 38.8198 0 35.7522 0C32.6849 0 29.9074 1.81744 28.6788 4.62468L20.3894 23.5585C19.4892 25.6149 19.5361 27.8632 20.3766 29.8C20.5685 30.2438 20.5387 30.7514 20.2998 31.1695C20.0566 31.5877 19.6342 31.8649 19.1564 31.9204C17.0574 32.1593 15.0863 33.2429 13.7553 35.0518L1.50246 51.699C-0.314986 54.1691 -0.498439 57.4798 1.03316 60.1377C2.56903 62.7914 5.52984 64.2889 8.57596 63.952L29.1182 61.6651C31.3494 61.4176 33.2736 60.253 34.5278 58.555C34.8138 58.1667 35.2703 57.9363 35.7522 57.9363C36.2344 57.9363 36.6866 58.1667 36.9768 58.555C38.231 60.253 40.1552 61.4176 42.3865 61.6651L62.9287 63.952C65.9748 64.2932 68.9356 62.7956 70.4715 60.1377C72.0029 57.4798 71.8196 54.1691 70.002 51.699ZM25.7478 25.9348L34.0499 6.97968C34.3488 6.30133 35.0185 5.8619 35.7564 5.8619C36.4946 5.8619 37.1643 6.30133 37.4632 6.97968L45.7654 25.9348C46.0257 26.5321 45.9701 27.2232 45.6117 27.7693C45.2533 28.3154 44.6477 28.6439 43.9907 28.6439H27.5183C26.8656 28.6439 26.2555 28.3154 25.8972 27.7693C25.5388 27.2232 25.4833 26.5321 25.7435 25.9348H25.7478ZM30.0098 54.792C29.7154 55.3765 29.1438 55.769 28.4953 55.8415L7.93176 58.1283C7.19795 58.2093 6.48123 57.8511 6.11006 57.2111C5.73887 56.571 5.78582 55.7733 6.22525 55.1761L18.4909 38.5119C18.8791 37.9871 19.502 37.6885 20.1547 37.7269C20.8074 37.761 21.3962 38.1236 21.7247 38.6909L21.7375 38.7124L29.9503 52.9363L29.963 52.9575C30.2915 53.5251 30.3084 54.2162 30.014 54.7962L30.0098 54.792ZM37.4418 48.3585C37.0918 48.9599 36.452 49.3355 35.7522 49.3355C35.0568 49.3355 34.4128 48.9644 34.0629 48.3627L27.753 37.4367C27.4032 36.8353 27.4032 36.0886 27.753 35.4871C28.1028 34.8854 28.7428 34.5101 29.4424 34.5101H42.058C42.7533 34.5101 43.3974 34.8769 43.7473 35.4829C44.0972 36.0886 44.0972 36.831 43.7473 37.4325L37.4418 48.3585ZM65.3988 57.2111C65.0277 57.8511 64.3151 58.2138 63.5772 58.1326L43.0136 55.8457C42.3651 55.7733 41.7935 55.3808 41.4991 54.7962C41.2047 54.212 41.2217 53.5206 41.5502 52.9575L41.5631 52.9363L49.7757 38.7124L49.7883 38.6909C50.1168 38.1236 50.7056 37.761 51.3584 37.7269C52.0112 37.6927 52.634 37.9871 53.0223 38.5119L65.2879 55.1761C65.7273 55.7733 65.7698 56.571 65.403 57.2111H65.3988Z" fill="white"/>
</svg>
